<?xml version="1.0" encoding="UTF-8" standalone="no"?>
<!-- Created with Inkscape (http://www.inkscape.org/) -->

<svg
   width="1920"
   height="200"
   viewBox="0 0 507.99999 52.916666"
   version="1.1"
   id="svg1"
   xmlns="http://www.w3.org/2000/svg"
   xmlns:svg="http://www.w3.org/2000/svg">
  <defs
     id="defs1" />
  <g
     id="layer1">
    <path
       style="fill:#ffffff;fill-opacity:1;stroke-width:0.264583"
       id="path12"
       d="M -13.782044,34.583179 C -7.9200514,33.087691 -1.9849037,31.904453 3.9175261,30.582968 14.139606,28.028497 24.246347,25.051252 34.477748,22.530534 c 14.788898,-3.584316 29.980808,-4.937091 45.121213,-6.013589 15.836908,-1.009211 31.709349,-1.0857 47.569589,-0.818271 13.04191,0.252859 26.03602,1.49877 39.00848,2.782919 12.65113,1.241542 25.25791,2.936701 37.83718,4.760717 8.92268,1.31264 17.7758,3.05396 26.69683,4.376972 4.12016,0.611032 11.56639,1.570972 15.65221,2.107576 13.98673,1.907286 28.01845,3.444838 42.08063,4.665522 13.5678,1.258552 27.17765,1.859479 40.7942,2.241563 11.92204,0.217993 23.84864,0.472612 35.77351,0.33977 7.59421,-0.0846 12.09493,-0.265729 19.72191,-0.505581 3.39646,-0.153242 6.79408,-0.282454 10.18937,-0.45973 6.96201,-0.363498 12.6174,-0.726686 19.54157,-1.368001 9.98421,-0.924738 19.92567,-2.262498 29.86826,-3.543398 18.37438,-2.514764 36.49493,-6.517414 54.61923,-10.38352 13.5227,-2.751065 26.86032,-6.299363 40.34608,-9.214033 6.94703,-1.470551 3.56975,-0.783732 10.12994,-2.0696491 0,0 -2.89272,-2.0151923 -2.89272,-2.0151923 v 0 c -6.49933,1.3406948 -3.14965,0.6316181 -10.04752,2.1340887 -13.42001,2.9702537 -26.68961,6.5711267 -40.15449,9.3454317 -18.05625,3.892433 -36.09845,7.984439 -54.41291,10.496454 -19.80467,2.495402 -39.65305,4.835207 -59.63058,5.313315 -7.55488,0.219604 -12.2442,0.395242 -19.7686,0.460806 -11.95483,0.104172 -23.91125,-0.16343 -35.86234,-0.416658 -13.67872,-0.443201 -27.34318,-1.143055 -40.97457,-2.396738 -13.99939,-1.171009 -27.97556,-2.608276 -41.89213,-4.544703 -5.62361,-0.750152 -10.12762,-1.324991 -15.72452,-2.172784 -8.9443,-1.354843 -17.82545,-3.090375 -26.77257,-4.42733 C 188.71856,19.398883 176.11526,17.716897 163.46964,16.473567 150.51925,15.199052 137.5487,13.94504 124.52616,13.772788 108.67846,13.563686 92.817142,13.626907 76.994397,14.652951 61.80171,15.750935 46.550045,17.058547 31.698562,20.611782 21.421458,23.123797 11.236245,25.982486 0.97115216,28.539307 -5.011616,29.861584 -11.022272,31.047581 -17.013149,32.331726 Z" />
    <path
       style="fill:#ffffff;fill-opacity:1;stroke-width:0.264583"
       d="m -10.472325,35.191881 c -1.035055,-2.313653 2.5267532,-3.409594 5.662362,-4.185885 3.1356088,-0.776292 5.8450183,-1.232934 16.895756,-3.500923 11.050738,-2.267989 30.442805,-6.347324 42.437269,-8.630535 11.994465,-2.28321 16.591328,-2.770294 21.294741,-3.089944 4.703413,-0.319649 9.513377,-0.471864 12.146679,-0.578413 2.633302,-0.10655 3.089945,-0.167436 3.196495,0.44142 0.10655,0.608856 -0.136992,1.887454 -0.304427,5.297048 -0.167436,3.409594 -0.258765,8.950185 -0.806736,15.41928 -0.54797,6.469096 -1.552583,13.866698 -4.886069,17.839484 -3.333487,3.972786 -8.995851,4.520756 -14.53644,4.703413 -5.540589,0.182657 -10.959409,10e-7 -17.80904,-0.380534 C 45.968634,58.145756 37.688191,57.567343 29.194649,56.060424 20.701107,54.553505 11.994465,52.11808 6.3625462,50.230627 0.7306277,48.343173 -1.8265686,47.00369 -4.4598714,45.375 c -2.6333029,-1.62869 -5.3427118,-3.546587 -6.9105166,-4.946956 -1.567804,-1.40037 -1.994003,-2.283211 -2.344095,-2.907288 -0.350092,-0.624076 -0.624078,-0.989392 0.608856,2.328874 1.232934,3.318267 3.9727855,10.320111 8.7370845,13.501384 4.76429897,3.181273 11.5530443,2.541974 15.0539665,1.52214 C 14.186347,53.85332 14.399446,52.452952 12.375,50.672047 10.350554,48.891143 6.0885611,46.729705 1.1416055,43.883303 -3.8053501,41.036901 -9.4372696,37.505534 -10.472325,35.191881 Z"
       id="path15" />
    <path
       style="fill:#ffffff;fill-opacity:1;stroke-width:0.264583"
       d="m 49.956643,18.904981 c -3.988009,0.517528 -7.976016,1.035055 -12.283673,2.130996 -4.307657,1.095941 -8.934963,2.770296 -8.630535,3.866236 0.304428,1.095941 5.540591,1.613469 10.85286,0.943727 5.31227,-0.669742 10.700644,-2.526752 12.116235,-3.851014 1.415591,-1.324262 -1.141604,-2.115775 -3.698799,-2.907288"
       id="path16" />
    <path
       style="fill:#ffffff;fill-opacity:1;stroke-width:0.264583"
       d="m 57.902212,18.083026 c -0.791511,-0.03044 -1.583026,-0.06089 -3.348708,0.197877 -1.765682,0.258764 -4.505535,0.806735 -6.332103,1.385148 -1.826568,0.578414 -2.739852,1.18727 -0.213099,1.537361 2.526752,0.350092 8.493542,0.441421 11.750923,-0.243542 3.25738,-0.684963 3.805351,-2.146218 2.876845,-2.770296 -0.928506,-0.624077 -3.333487,-0.410978 -5.73847,-0.197878"
       id="path17" />
    <path
       style="fill:#ffffff;fill-opacity:1;stroke-width:0.264583"
       d="m 30.960332,23.227859 c -0.578413,-0.578413 -2.161439,-0.213099 -3.226938,0.197879 -1.065498,0.410978 -1.613468,0.86762 -1.035055,1.446033 0.578414,0.578414 2.283211,1.278599 3.348709,0.86762 1.065498,-0.410978 1.491697,-1.933118 0.913284,-2.511532 z"
       id="path18" />
    <path
       style="fill:#ffffff;fill-opacity:1;stroke-width:0.264583"
       d="M -3.485701,36.394371 C -4.8708484,40.062729 -7.458487,47.886532 -2.8007378,50.519834 1.8570114,53.153137 13.760147,50.59594 15.145295,46.927582 16.530443,43.259224 7.3976008,38.479704 2.7398522,35.846402 -1.9178964,33.2131 -2.1005537,32.726013 -3.485701,36.394371 Z"
       id="path19" />
    <path
       style="fill:#ffffff;fill-opacity:1;stroke-width:0.264583"
       d="m 21.462177,43.746308 c -2.009225,0.487086 -4.01845,0.974171 -6.940959,2.070112 -2.922509,1.095942 -6.7583028,2.800738 -7.8694653,4.870849 -1.1111625,2.07011 0.5023069,4.505536 2.6028602,5.692804 2.1005531,1.187269 4.6881911,1.126384 6.2255531,-1.035056 1.537362,-2.161439 2.024446,-6.42343 2.511531,-10.685423"
       id="path20" />
    <path
       style="fill:#ffffff;fill-opacity:1;stroke-width:0.264583"
       d="M 91.013253,16.058629 C 92.6062,15.24063 95.70599,15.369787 102.3361,15.369787 c 6.6301,0 16.79052,-0.129157 24.97052,-0.02153 8.17999,0.107632 14.37957,0.452053 19.97641,0.882579 5.59685,0.430527 10.59095,0.947157 13.77685,1.205473 3.18589,0.258316 4.56357,0.258316 8.69663,0.688842 4.13305,0.430527 11.02147,1.291579 15.39131,5.682947 4.36984,4.391368 6.22111,12.313051 6.67316,17.091892 0.45205,4.778842 -0.49511,6.414842 -5.25242,8.825789 -4.75732,2.410948 -13.32479,5.596841 -19.65353,7.232841 -6.32873,1.636 -10.41873,1.722106 -13.56157,2.001949 -3.14285,0.279842 -5.33853,0.75342 -9.12716,0.817999 -3.78863,0.06458 -9.17021,-0.279842 -14.16432,-0.473579 -4.9941,-0.193737 -9.60073,-0.236789 -13.9921,-0.538158 -4.39137,-0.301368 -8.56747,-0.861052 -14.16431,-1.915842 -5.596844,-1.054789 -12.614422,-2.604684 -16.941211,-4.455948 -4.32679,-1.851263 -5.962789,-4.003893 -4.800368,-9.385471 1.162421,-5.381578 5.123263,-13.992104 7.146736,-19.179945 2.023473,-5.187842 2.109579,-6.953 3.702526,-7.771 z"
       id="path21" />
    <path
       style="fill:#ffffff;fill-opacity:1;stroke-width:0.264583"
       d="m 185.57835,23.033155 c 10.225,-1.205473 29.59868,1.765158 41.33052,3.508789 11.73184,1.743632 15.82184,2.260263 18.12516,7.555736 2.30331,5.295473 2.81994,15.369788 -1.76517,20.772893 -4.5851,5.403104 -14.27194,6.134999 -23.54978,6.199578 -9.27784,0.06458 -18.14668,-0.538157 -24.47542,-1.076316 -6.32874,-0.538159 -10.11737,-1.011738 -13.45395,-2.540104 -3.33657,-1.528366 -6.2211,-4.111526 -8.2661,-6.156525 -2.045,-2.044999 -3.25047,-3.551839 -3.16437,-6.178051 0.0861,-2.626213 1.46379,-6.371791 2.69079,-10.935369 1.227,-4.563578 2.30332,-9.945158 12.52832,-11.150631 z"
       id="path22" />
    <path
       style="fill:#ffffff;fill-opacity:1;stroke-width:0.264583"
       d="m 180.13768,20.64022 c 4.1935,-0.684962 11.57588,1e-6 16.53045,0.616467 4.95456,0.616467 7.48131,1.164437 9.77975,1.910286 2.29843,0.74585 4.36854,1.689576 4.52075,2.618081 0.15222,0.928505 -1.61347,1.841791 -6.59847,2.275601 -4.98501,0.433809 -13.18935,0.388146 -18.79844,-0.129381 -5.60908,-0.517526 -8.62292,-1.506919 -9.62753,-3.029059 -1.00462,-1.522141 0,-3.577032 4.19349,-4.261995 z"
       id="path23" />
    <path
       style="fill:#ffffff;fill-opacity:1;stroke-width:0.264583"
       d="m 177.64137,19.194187 c 0.55558,0.06089 1.66674,0.182657 2.93773,0.395757 1.27099,0.2131 2.7018,0.517528 3.36393,1.004613 0.66213,0.487085 0.55558,1.156825 -0.87523,1.263376 -1.43081,0.106551 -4.18588,-0.350091 -5.57104,-0.646907 -1.38515,-0.296815 -1.40039,-0.433805 -1.24057,-0.753458 0.15982,-0.319653 0.49469,-0.821959 0.66212,-1.073113 0.16744,-0.251153 0.16748,-0.251153 0.72306,-0.190268 z"
       id="path24" />
    <path
       style="fill:#ffffff;fill-opacity:1;stroke-width:0.264583"
       d="m 207.53621,23.684503 c 0.55558,-0.410979 2.15382,-0.01522 3.31065,0.319648 1.15683,0.334872 1.87223,0.608855 1.31665,1.019834 -0.55558,0.410978 -2.38215,0.95895 -3.53897,0.624077 -1.15683,-0.334872 -1.64391,-1.552581 -1.08833,-1.963559 z"
       id="path25" />
    <path
       style="fill:#ffffff;fill-opacity:1;stroke-width:0.264583"
       d="m 238.1456,28.070312 c 1.05479,-0.301369 2.99216,-0.172211 4.47748,0.0861 1.48531,0.258316 2.51857,0.645788 4.36984,0.925632 1.85126,0.279843 4.52052,0.452054 9.19173,0.990211 4.67121,0.538158 11.34437,1.442264 16.72595,1.958895 5.38159,0.516632 9.47157,0.64579 14.03515,0.968685 4.56359,0.322895 9.60073,0.839524 17.65158,1.356156 8.05084,0.516631 19.11537,1.033263 29.01747,1.356157 9.9021,0.322895 18.64179,0.452054 24.73374,0.47358 6.09195,0.02153 9.53617,-0.06458 11.51658,2.367896 1.98041,2.432474 2.49704,7.383527 -2.23874,12.722052 -4.73579,5.338525 -14.724,11.064526 -28.56542,13.927524 -13.84143,2.862998 -31.53605,2.862998 -41.95479,2.497051 -10.41873,-0.365946 -13.56158,-1.097844 -19.13689,-2.303317 -5.57532,-1.205474 -13.5831,-2.884524 -21.95684,-5.639892 -8.37373,-2.755367 -17.11342,-6.587054 -22.06447,-9.191737 -4.95105,-2.604683 -6.11347,-3.982368 -5.01563,-7.23284 1.09784,-3.250472 4.45595,-8.373737 6.2211,-11.301315 1.76516,-2.927578 1.93737,-3.659473 2.99216,-3.960842 z"
       id="path26" />
    <path
       style="fill:#ffffff;fill-opacity:1;stroke-width:0.264583"
       d="m 382.23985,36.470477 c 21.43174,-4.444649 61.06828,-8.584871 86.30536,-11.750922 25.23708,-3.166051 36.07471,-5.35793 43.83763,-0.03044 7.76291,5.327488 12.4511,18.174357 10.77674,26.97233 -1.67436,8.797972 -9.71123,13.547037 -25.14574,15.464937 -15.43451,1.917899 -38.26662,1.004615 -54.85794,0.608859 -16.59132,-0.395756 -26.94187,-0.273985 -35.22232,-0.547971 -8.28046,-0.273986 -14.49079,-0.943727 -20.82289,-1.826568 -6.3321,-0.882841 -12.78597,-1.978781 -18.26568,-4.505535 -5.47971,-2.526753 -9.98524,-6.484315 -10.62454,-10.837637 -0.6393,-4.353323 2.58764,-9.102402 24.01938,-13.547051 z"
       id="path27" />
    <path
       style="fill:#ffffff;fill-opacity:1;stroke-width:0.264583"
       d="m 371.66097,37.277214 c -2.66374,-0.319651 -4.82518,0.563193 -4.68819,1.461254 0.13699,0.898061 2.57242,1.81135 4.76429,2.237548 2.19188,0.426198 4.14022,0.365312 5.58626,0.228318 1.44604,-0.136993 2.38976,-0.350091 1.2786,-1.217712 -1.11116,-0.867621 -4.27721,-2.389758 -6.94096,-2.709408 z"
       id="path28" />
    <path
       style="fill:#ffffff;fill-opacity:1;stroke-width:0.264583"
       d="m 375.00721,36.002757 c -0.97137,0.04844 -2.75267,0.177593 -4.31602,0.344421 -1.56334,0.166829 -2.90875,0.371331 -3.37157,0.731894 -0.46281,0.360563 -0.043,0.877205 1.1113,1.21086 1.15434,0.333654 3.04328,0.48434 5.09097,0.51932 2.04769,0.03498 4.25413,-0.04574 5.43271,-0.09956 1.17857,-0.05382 1.32925,-0.08072 1.82166,-0.365947 0.49242,-0.285225 1.32657,-0.828768 1.63331,-1.202782 0.30675,-0.374015 0.0861,-0.578513 -0.7023,-0.713055 -0.7884,-0.134542 -2.14454,-0.19912 -3.14014,-0.255628 -0.99561,-0.05651 -1.63063,-0.104941 -2.02887,-0.145305 -0.39824,-0.04036 -0.55969,-0.07265 -1.53105,-0.02422 z"
       id="path29" />
    <path
       style="fill:#ffffff;fill-opacity:1;stroke-width:0.264583"
       d="m 503.47894,25.810051 c 3.33657,-0.236789 5.27395,-1.011741 6.50095,-2.389423 1.22699,-1.377682 1.74363,-3.358107 1.59294,-4.455948 -0.15069,-1.097842 -0.96867,-1.313099 -1.93737,-1.420732 -0.96869,-0.107634 -2.08804,-0.107634 -5.16631,0.688839 -3.07826,0.796473 -8.11543,2.389422 -10.74164,3.724051 -2.62621,1.33463 -2.84146,2.410946 -0.5812,3.099789 2.26026,0.688843 6.99606,0.990212 10.33263,0.753424 z"
       id="path30" />
  </g>
</svg>
